<?xml version="1.0" encoding="UTF-8"?>
<svg width="19px" height="22px" viewBox="0 0 19 22" version="1.1" xmlns="http://www.w3.org/2000/svg" xmlns:xlink="http://www.w3.org/1999/xlink">
    <!-- Generator: Sketch 48.2 (47327) - http://www.bohemiancoding.com/sketch -->
    <title>about</title>
    <desc>Created with Sketch.</desc>
    <defs></defs>
    <g id="Menu-Drawer" stroke="none" stroke-width="1" fill="none" fill-rule="evenodd" transform="translate(-22.000000, -286.000000)" opacity="1">
        <path d="M30.9774622,307.479152 C30.8878499,307.445924 22,303.990939 22,293.784303 L22,286.325758 C22,286.145939 22.1454576,286 22.3246822,286 L39.8575197,286 C40.0367443,286 40.1822019,286.145939 40.1822019,286.325758 L40.1822019,293.784303 C40.1822019,303.990939 31.294352,307.445273 31.2047397,307.479152 C31.1683753,307.492833 31.1300628,307.5 31.0911009,307.5 C31.0521391,307.5 31.0138266,307.492833 30.9774622,307.479152 Z M36.2793246,295.299316 C36.2793246,292.597068 34.0946183,290.405126 31.3979902,290.405126 C28.7013622,290.405126 26.5166559,292.597068 26.5166559,295.299316 C26.5166559,298.001564 28.7013622,300.193506 31.3979902,300.193506 L31.3979902,298.193506 C29.8074148,298.193506 28.5166559,296.898472 28.5166559,295.299316 C28.5166559,293.70016 29.8074148,292.405126 31.3979902,292.405126 C32.9885657,292.405126 34.2793246,293.70016 34.2793246,295.299316 L36.2793246,295.299316 Z" id="about" fill="#A0AAC3"></path>
    </g>
</svg>