<?xml version="1.0" encoding="UTF-8"?>
<svg width="22px" height="14px" viewBox="0 0 22 14" version="1.1" xmlns="http://www.w3.org/2000/svg" xmlns:xlink="http://www.w3.org/1999/xlink">
    <!-- Generator: Sketch 48.2 (47327) - http://www.bohemiancoding.com/sketch -->
    <title>Combined Shape@3x</title>
    <desc>Created with Sketch.</desc>
    <defs></defs>
    <g id="Menu-Drawer-Elite" stroke="none" stroke-width="1" fill="none" fill-rule="evenodd" transform="translate(-96.000000, -559.000000)" opacity="1">
        <path d="M96.0042901,566.008937 C95.8674815,562.399946 99.0225367,559.064799 102.628185,559.021529 C104.46589,558.864484 106.253765,559.579504 107.644502,560.745686 C107.074013,561.374166 106.493558,561.995383 105.87354,562.576961 C104.649208,561.831682 103.175117,561.263721 101.744214,561.768138 C99.4362847,562.426574 98.0386016,565.156844 98.8926742,567.419007 C99.5999719,569.781629 102.468122,571.078228 104.715951,570.085732 C105.879882,569.668158 106.647279,568.592148 106.984015,567.435952 C105.650055,567.409324 104.315793,567.425966 102.981834,567.38905 C102.978511,566.593844 102.975189,565.801663 102.978511,565.006456 C105.203087,565.003128 107.430984,564.996471 109.658881,565.016442 C109.79569,566.964819 109.508784,569.049967 108.244588,570.613752 C106.51349,572.845958 103.315248,573.501066 100.713468,572.62537 C97.9522279,571.716692 95.944191,568.929536 96.0042901,566.008937 Z M113.995081,563.001192 C114.655568,563.001192 115.315753,563.001192 115.97926,563.001192 C115.982884,563.666285 115.989226,564.334707 115.99285,564.999497 C116.656357,565.006154 117.323488,565.009482 117.987297,565.012811 C117.987297,565.677904 117.987297,566.339365 117.987297,567.004458 C117.32379,567.007787 116.656659,567.011115 115.99285,567.014444 C115.986206,567.682865 115.982884,568.347655 115.97926,569.016077 C115.315753,569.012748 114.651642,569.016077 113.991457,569.016077 C113.985115,568.347655 113.985115,567.682865 113.978169,567.017772 C113.314662,567.010813 112.647531,567.007787 111.983722,567.004156 C111.983722,566.339063 111.983722,565.677601 111.983722,565.012508 C112.647531,565.00918 113.31134,565.005851 113.978169,564.999194 C113.981491,564.334707 113.988135,563.666285 113.995081,563.001192 Z" id="Combined-Shape" fill="#A0AAC3" fill-rule="nonzero"></path>
    </g>
</svg>