<?xml version="1.0" encoding="UTF-8"?>
<svg width="21px" height="19px" viewBox="0 0 21 19" version="1.1" xmlns="http://www.w3.org/2000/svg" xmlns:xlink="http://www.w3.org/1999/xlink">
    <!-- Generator: Sketch 48.2 (47327) - http://www.bohemiancoding.com/sketch -->
    <title>rate us</title>
    <desc>Created with Sketch.</desc>
    <defs></defs>
    <g id="Menu-Drawer" stroke="none" stroke-width="1" fill="none" fill-rule="evenodd" transform="translate(-20.000000, -409.000000)" opacity="1">
        <path d="M20,428 L23.8181818,428 L23.8181818,416.6 L20,416.6 L20,428 L20,428 Z M41,417.55 C41,416.505 40.1409091,415.65 39.0909091,415.65 L33.0772727,415.65 L34.0318182,411.28 L34.0318182,410.995 C34.0318182,410.615 33.8409091,410.235 33.65,409.95 L32.6,409 L26.3,415.27 C25.9181818,415.555 25.7272727,416.03 25.7272727,416.6 L25.7272727,426.1 C25.7272727,427.145 26.5863636,428 27.6363636,428 L36.2272727,428 C36.9909091,428 37.6590909,427.525 37.9454545,426.86 L40.8090909,420.115 C40.9045455,419.925 40.9045455,419.64 40.9045455,419.45 L40.9045455,417.55 L41,417.55 C41,417.645 41,417.55 41,417.55 L41,417.55 Z" id="rate-us" fill="#A0AAC3"></path>
    </g>
</svg>