<?xml version="1.0" encoding="UTF-8"?>
<svg width="21px" height="21px" viewBox="0 0 21 21" version="1.1" xmlns="http://www.w3.org/2000/svg" xmlns:xlink="http://www.w3.org/1999/xlink">
    <!-- Generator: Sketch 48.2 (47327) - http://www.bohemiancoding.com/sketch -->
    <title>settings</title>
    <desc>Created with Sketch.</desc>
    <defs></defs>
    <g id="Menu-Drawer" stroke="none" stroke-width="1" fill="none" fill-rule="evenodd" transform="translate(-21.000000, -164.000000)" opacity="1">
        <path d="M39.2453949,175.721675 C39.2453949,175.41563 39.3474101,175.109584 39.3474101,174.701523 C39.3474101,174.293462 39.3474101,173.987416 39.2453949,173.681371 L41.3877147,171.947112 C41.5917451,171.743081 41.5917451,171.539051 41.4897299,171.33502 L39.4494253,167.764487 C39.3474101,167.662472 39.1433796,167.560457 38.8373339,167.662472 L36.2869532,168.682624 C35.7768771,168.274563 35.1647857,167.968518 34.5526943,167.662472 L34.1446334,165.010076 C34.2466486,164.70403 33.9406029,164.5 33.7365725,164.5 L29.6559633,164.5 C29.4519328,164.5 29.1458871,164.70403 29.1458871,164.908061 L28.7378262,167.662472 C28.1257348,167.866503 27.6156587,168.274563 27.0035673,168.682624 L24.5552018,167.662472 C24.2491561,167.560457 24.0451256,167.662472 23.8410952,167.866503 L21.8007906,171.437036 C21.6987754,171.539051 21.8007906,171.845097 22.004821,172.049127 L24.1471409,173.681371 C24.1471409,173.987416 24.0451256,174.293462 24.0451256,174.701523 C24.0451256,175.109584 24.0451256,175.41563 24.1471409,175.721675 L22.004821,177.455934 C21.8007906,177.659965 21.8007906,177.863995 21.9028058,178.068026 L23.9431104,181.638559 C24.0451256,181.740574 24.2491561,181.842589 24.5552018,181.740574 L27.1055825,180.720422 C27.6156587,181.128482 28.2277501,181.434528 28.8398414,181.740574 L29.2479024,184.39297 C29.2479024,184.597 29.4519328,184.801031 29.7579785,184.801031 L33.8385877,184.801031 C34.0426181,184.801031 34.3486638,184.597 34.3486638,184.39297 L34.7567248,181.740574 C35.3688161,181.434528 35.9809075,181.128482 36.4909837,180.720422 L39.0413644,181.740574 C39.2453949,181.842589 39.5514406,181.740574 39.6534558,181.536543 L41.6937604,177.96601 C41.7957756,177.76198 41.7957756,177.455934 41.5917451,177.353919 L39.2453949,175.721675 L39.2453949,175.721675 Z M31.6962679,178.272056 C29.7579785,178.272056 28.1257348,176.639812 28.1257348,174.701523 C28.1257348,172.763234 29.7579785,171.13099 31.6962679,171.13099 C33.6345572,171.13099 35.2668009,172.763234 35.2668009,174.701523 C35.2668009,176.639812 33.6345572,178.272056 31.6962679,178.272056 L31.6962679,178.272056 Z" id="settings" fill="#A0AAC3"></path>
    </g>
</svg>