<?xml version="1.0" encoding="UTF-8"?>
<svg width="17px" height="14px" viewBox="0 0 17 14" version="1.1" xmlns="http://www.w3.org/2000/svg" xmlns:xlink="http://www.w3.org/1999/xlink">
    <!-- Generator: Sketch 48.2 (47327) - http://www.bohemiancoding.com/sketch -->
    <title>ion-social-twitter - Ionicons@3x</title>
    <desc>Created with Sketch.</desc>
    <defs></defs>
    <g id="Menu-Drawer-Elite" stroke="none" stroke-width="1" fill="none" fill-rule="evenodd" transform="translate(-54.000000, -559.000000)" opacity="1">
        <path d="M71,560.677083 C70.5677944,561.357642 69.991529,561.965275 69.2711864,562.5 L69.2711864,562.9375 C69.2711864,565.489596 68.364769,567.804677 66.5519068,569.882812 C64.7390446,571.960948 62.3319359,573 59.3305085,573 C57.4095949,573 55.6327765,572.465283 54,571.395833 C54.3841827,571.444445 54.6603099,571.46875 54.8283898,571.46875 C56.4371549,571.46875 57.8778185,570.958338 59.1504237,569.9375 C58.4060697,569.913194 57.7337601,569.676218 57.1334746,569.226562 C56.5331891,568.776907 56.1250011,568.199656 55.9088983,567.494792 C56.1970353,567.543403 56.4131349,567.567708 56.5572034,567.567708 C56.7973176,567.567708 57.1094614,567.519098 57.4936441,567.421875 C56.7012672,567.251735 56.0349603,566.844621 55.4947034,566.200521 C54.9544465,565.55642 54.684322,564.809032 54.684322,563.958333 L54.684322,563.921875 C55.2125733,564.213543 55.7408166,564.359375 56.2690678,564.359375 C55.2365768,563.678816 54.720339,562.694451 54.720339,561.40625 C54.720339,560.798608 54.8764109,560.215281 55.1885593,559.65625 C57.0374386,561.965289 59.426539,563.192708 62.3559322,563.338542 C62.3079094,563.168402 62.2838983,562.901043 62.2838983,562.536458 C62.2838983,561.539926 62.6200531,560.701392 63.2923729,560.020833 C63.9646926,559.340274 64.7930742,559 65.7775424,559 C66.7620106,559 67.6023976,559.376732 68.2987288,560.130208 C69.0190714,560.00868 69.7634142,559.717016 70.5317797,559.255208 C70.2916655,560.105907 69.7754277,560.76215 68.9830508,561.223958 C69.7274049,561.151041 70.3997145,560.968751 71,560.677083 Z" id="ion-social-twitter---Ionicons" fill="#A0AAC3"></path>
    </g>
</svg>