<?xml version="1.0" encoding="utf-8"?>
<!-- Generator: Adobe Illustrator 18.1.1, SVG Export Plug-In . SVG Version: 6.00 Build 0)  -->
<svg version="1.1" id="Layer_1" xmlns="http://www.w3.org/2000/svg" xmlns:xlink="http://www.w3.org/1999/xlink" x="0px" y="0px"
	 viewBox="293.5 155.9 254.9 283.5" enable-background="new 293.5 155.9 254.9 283.5" xml:space="preserve">
<path id="avatarPath" d="M543.7,226.8c-3-5.3-7.4-9.7-12.8-12.9l-92.3-53.3c-5.4-3.1-11.5-4.7-17.6-4.7c-6.1,0-12.1,1.6-17.5,4.7
	L311,213.9c-5.4,3.1-9.8,7.6-12.8,12.9c-3,5.3-4.7,11.3-4.7,17.6V351c0,6.2,1.7,12.3,4.7,17.5c3,5.3,7.4,9.7,12.8,12.9l92.3,53.3
	c5.4,3.1,11.5,4.7,17.5,4.7c6.1,0,12.1-1.6,17.6-4.7l92.3-53.3c5.4-3.1,9.8-7.6,12.8-12.9c3-5.2,4.7-11.3,4.7-17.5V244.3
	C548.4,238.1,546.7,232,543.7,226.8"/>
</svg>
