<?xml version="1.0" encoding="UTF-8"?>
<svg width="210px" height="35px" viewBox="0 0 210 35" version="1.1" xmlns="http://www.w3.org/2000/svg" xmlns:xlink="http://www.w3.org/1999/xlink">
    <!-- Generator: Sketch 48.2 (47327) - http://www.bohemiancoding.com/sketch -->
    <title>HSS Logo Dark</title>
    <desc>Created with Sketch.</desc>
    <defs></defs>
    <g id="Uninstall-Page-1" stroke="none" stroke-width="1" fill="none" fill-rule="evenodd" transform="translate(-615.000000, -33.000000)">
        <g id="HSS-Logo-Dark" transform="translate(615.000000, 33.000000)">
            <g id="logo-copy">
                <g id="shield">
                    <path d="M14.2947888,34.9071881 C14.1522028,34.8518233 0,30.0677034 0,13.0472182 L0,0.609492293 C0,0.30991598 0.231611768,0.0664628242 0.51714565,0.0664628242 L28.4343253,0.0664628242 C28.7198592,0.0664628242 28.951471,0.30991598 28.951471,0.609492293 L28.951471,13.0472182 C28.951471,30.0677034 14.7992682,34.8506857 14.6566822,34.9071881 C14.5987792,34.9299407 14.5376192,34.9420754 14.4757355,34.9420754 C14.4138517,34.9420754 14.3526917,34.9299407 14.2947888,34.9071881" id="Fill-1" fill="#2FA6F8"></path>
                    <path d="M20.7844058,21.7400886 C20.1612253,22.1837649 19.4765231,22.5341554 18.7494792,22.7817799 C16.7149146,23.4745975 14.54464,23.2956102 12.6381856,22.2778091 C10.8084527,21.3009628 9.4213153,19.6487426 8.73299408,17.6256544 C8.70078557,17.5304726 8.60633139,17.4758663 8.51260101,17.4974813 C8.41887062,17.5190963 8.35481549,17.6097276 8.36350093,17.7098392 C8.47858303,19.0742386 8.94723496,20.3836525 9.71951545,21.4973939 C12.0678416,24.8845022 16.608518,25.6379936 19.8409497,23.1772965 C20.2788407,22.8439704 20.6805424,22.4602094 21.034836,22.0370104 C21.0981673,21.9615475 21.0981673,21.8485428 21.0344741,21.7730799 C20.9707809,21.697617 20.8640223,21.6835862 20.7844058,21.7400886" id="Fill-4" fill="#0E5396"></path>
                    <path d="M15.1221133,6.81898877 C19.2028231,8.20841612 21.5406544,12.8472985 20.333378,17.1596805 C20.306236,17.256 20.3518346,17.358766 20.4397747,17.3989624 C20.5034679,17.4281616 20.5751228,17.4183021 20.6283211,17.3773474 C20.6485872,17.3621789 20.6663199,17.34246 20.67971,17.3185697 C21.351746,16.1441547 21.7071253,14.7956821 21.7067634,13.4195271 C21.7071253,11.3949222 20.9522157,9.48863085 19.5824493,8.05293981 C18.2123209,6.61724877 16.3934447,5.82659483 14.4605721,5.82659483 C13.918094,5.82697404 13.3777871,5.88992299 12.8548512,6.01392483 C12.7618446,6.03629825 12.6981514,6.12768798 12.7071987,6.22779956 C12.716246,6.32791114 12.7951388,6.40527009 12.8910405,6.40868298 C13.6448645,6.43371088 14.3954313,6.5713643 15.1221133,6.81898877" id="Fill-8" fill="#00FFCA"></path>
                    <path d="M5.79843679,14.1984255 C6.05393352,13.4555521 6.41148419,12.7498414 6.86059388,12.1013914 C7.36073054,11.3805122 7.95821653,10.7529187 8.63676663,10.2360548 C9.66020113,9.45715638 10.8207932,8.95584007 12.0870582,8.74537823 C14.1158325,8.40863928 16.1648729,8.89137428 17.8567244,10.1040895 C17.9243985,10.1526285 18.0123386,10.1495948 18.0763937,10.1010558 C18.0872505,10.0927132 18.0973835,10.0828537 18.1067928,10.0718566 C18.170486,9.99677295 18.1712098,9.88376822 18.1082404,9.80792611 C17.2498292,8.77495665 16.1355595,8.00440086 14.8863035,7.57930587 C11.0871468,6.28543956 6.99051361,8.47196744 5.75573337,12.4540571 C5.58853863,12.9929153 5.47852304,13.5511132 5.42930554,14.1123448 C5.4202582,14.2124563 5.48395144,14.3038461 5.57768183,14.3258403 C5.67177411,14.3474553 5.76622828,14.2924698 5.79843679,14.1984255" id="Fill-10" fill="#F65260"></path>
                    <path d="M9.10234247,21.9671599 C6.58030746,18.3297725 7.29142796,13.1368636 10.6870736,10.3917586 C10.7630712,10.3303265 10.7836991,10.2192178 10.7352054,10.1323786 C10.6867117,10.0455394 10.583934,10.0102728 10.4959939,10.0497107 C9.29595543,10.5847768 8.24791218,11.4603739 7.47780306,12.5714607 C5.12947687,15.9585691 5.84855903,20.7165235 9.08099076,23.1772206 C9.51960554,23.5109259 9.99187641,23.7926793 10.4847752,24.0148967 C10.5484684,24.0433375 10.6190377,24.0330988 10.672236,23.9929025 C10.6928639,23.9769756 10.7105967,23.9568775 10.7243486,23.932608 C10.7732042,23.8457688 10.7525763,23.7346601 10.6769406,23.673228 C10.0812641,23.1889762 9.55145216,22.6148514 9.10234247,21.9671599" id="Fill-12" fill="#FBCC62"></path>
                </g>
            </g>
            <path d="M50.8897992,15.4303351 L50.836371,23.4453263 L54.0954928,23.4453263 L54.0954928,5.15608466 L50.8897992,5.15608466 L50.8897992,12.5524691 L42.7687087,12.5524691 L42.7687087,5.15608466 L39.5630151,5.15608466 L39.5630151,23.4453263 L42.7687087,23.4453263 L42.7687087,15.4303351 L50.8897992,15.4303351 Z M56.8203324,17.0978836 C56.8203324,12.9828042 59.304745,10.3470018 63.1782914,10.3470018 C67.0518379,10.3470018 69.5362504,12.9828042 69.5362504,17.0978836 C69.5362504,21.186067 67.078552,23.7680776 63.1782914,23.7680776 C59.2780308,23.7680776 56.8203324,21.186067 56.8203324,17.0978836 Z M59.8390272,17.0440917 C59.8390272,19.5992063 61.2281611,21.1322751 63.1782914,21.1322751 C65.1284217,21.1322751 66.5175556,19.5723104 66.5175556,17.0440917 C66.5175556,14.4620811 65.1818499,12.9559083 63.1782914,12.9559083 C61.1747329,12.9559083 59.8390272,14.4889771 59.8390272,17.0440917 Z M79.2869018,21.1322751 C78.9663324,21.186067 78.4854784,21.2398589 77.9511961,21.2398589 C77.4169139,21.2398589 76.9093457,21.1591711 76.6689187,20.8902116 C76.4284917,20.6481481 76.3216352,20.2985009 76.3216352,19.5723104 L76.3216352,13.0365961 L79.2869018,13.0365961 L79.2869018,10.6428571 L76.3216352,10.6428571 L76.3216352,5.50573192 L73.2762263,5.51469724 L73.2762263,10.6428571 L70.5513867,10.6428571 L70.5513867,13.0365961 L73.2762263,13.0365961 L73.2762263,20.0833333 C73.2762263,21.3205467 73.3029404,22.0467372 73.8105086,22.6653439 C74.5050755,23.5260141 75.7873529,23.7680776 77.0162022,23.7680776 C77.924482,23.7680776 78.6991913,23.6873898 79.2869018,23.5529101 L79.2869018,21.1322751 Z M91.6555363,12.3641975 C90.8273988,11.4497354 88.8772685,10.3201058 86.3394278,10.3201058 C83.9084434,10.3201058 81.210318,11.5035273 81.210318,14.3007055 C81.210318,16.6406526 82.9467353,17.5820106 85.1640068,18.0661376 L87.0607088,18.4695767 C88.289558,18.7385362 89.0108391,18.8999118 89.0108391,19.787478 C89.0108391,20.70194 88.1292734,21.2398589 86.6065689,21.2398589 C84.6564386,21.2398589 83.4275894,20.2985009 82.7063083,19.3302469 L80.6493216,21.1591711 C81.4240309,22.2619048 83.4810176,23.7680776 86.5264265,23.7680776 C89.4382649,23.7680776 92.0829621,22.3694885 92.0829621,19.4378307 C92.0829621,17.0978836 90.3465448,16.3716931 88.4231286,15.9144621 L86.9004241,15.5648148 C85.1105785,15.1882716 84.2290128,15 84.2290128,14.0855379 C84.2290128,13.2517637 85.1105785,12.8214286 86.3127136,12.8214286 C87.7819899,12.8214286 89.0108391,13.4131393 89.8924048,14.2738095 L91.6555363,12.3641975 Z M101.35276,23.7680776 C99.6430562,23.7680776 98.414207,23.095679 97.6127836,22.1005291 L97.6127836,28.5555556 L94.5673747,28.5555556 L94.5673747,10.6428571 L97.6127836,10.6428571 L97.6127836,12.0414462 C98.3073506,11.1269841 99.6964845,10.3201058 101.35276,10.3201058 C104.79888,10.3201058 106.989437,13.117284 106.989437,17.0978836 C106.989437,20.9440035 104.745452,23.7680776 101.35276,23.7680776 Z M97.4792131,17.0440917 C97.4792131,19.5185185 98.7882046,21.1053792 100.711621,21.1053792 C102.661751,21.1053792 103.944029,19.5723104 103.944029,17.0440917 C103.944029,14.4620811 102.661751,12.9559083 100.711621,12.9559083 C98.7882046,12.9559083 97.4792131,14.5696649 97.4792131,17.0440917 Z M108.912854,17.0978836 C108.912854,12.9828042 111.397266,10.3470018 115.270813,10.3470018 C119.144359,10.3470018 121.628772,12.9828042 121.628772,17.0978836 C121.628772,21.186067 119.171073,23.7680776 115.270813,23.7680776 C111.370552,23.7680776 108.912854,21.186067 108.912854,17.0978836 Z M111.931548,17.0440917 C111.931548,19.5992063 113.320682,21.1322751 115.270813,21.1322751 C117.220943,21.1322751 118.610077,19.5723104 118.610077,17.0440917 C118.610077,14.4620811 117.274371,12.9559083 115.270813,12.9559083 C113.267254,12.9559083 111.931548,14.4889771 111.931548,17.0440917 Z M131.379423,21.1322751 C131.058854,21.186067 130.578,21.2398589 130.043717,21.2398589 C129.509435,21.2398589 129.001867,21.1591711 128.76144,20.8902116 C128.521013,20.6481481 128.414156,20.2985009 128.414156,19.5723104 L128.414156,13.0365961 L131.379423,13.0365961 L131.379423,10.6428571 L128.414156,10.6428571 L128.414156,5.50573192 L125.368747,5.50573192 L125.368747,10.6428571 L122.643908,10.6428571 L122.643908,13.0365961 L125.368747,13.0365961 L125.368747,20.0833333 C125.368747,21.3205467 125.395462,22.0467372 125.90303,22.6653439 C126.597597,23.5260141 127.879874,23.7680776 129.108723,23.7680776 C130.017003,23.7680776 130.791713,23.6873898 131.379423,23.5529101 L131.379423,21.1322751 Z M152.724,7.87257496 C151.655435,6.68915344 149.438164,4.83333333 145.671474,4.83333333 C141.824641,4.83333333 138.805947,7.01190476 138.805947,10.2663139 C138.805947,13.6014109 141.290359,14.8655203 144.255626,15.5110229 L146.68661,16.0489418 C148.529884,16.452381 149.785447,16.9902998 149.785447,18.4157848 C149.785447,19.8681658 148.529884,20.8902116 146.0989,20.8902116 C143.534345,20.8902116 141.530786,19.4647266 140.702649,18.0930335 L138.031237,20.0295414 C139.286801,21.8046737 141.984926,23.7680776 145.938615,23.7680776 C150.480014,23.7680776 153.231568,21.5088183 153.231568,18.1199295 C153.231568,14.7848325 150.773869,13.6820988 147.381177,12.9021164 L145.19062,12.4179894 C143.133633,11.9607584 142.252067,11.4497354 142.252067,10.1049383 C142.252067,8.70634921 143.480916,7.65740741 145.591331,7.65740741 C147.621604,7.65740741 149.277879,8.59876543 150.293015,9.86287478 L152.724,7.87257496 Z M167.122907,16.1834215 C167.122907,13.7089947 166.855766,12.7407407 166.268055,11.9069665 C165.413204,10.7504409 164.211068,10.3201058 162.768506,10.3201058 C160.84509,10.3201058 159.402528,11.1538801 158.814817,12.2835097 L158.814817,5.15608466 L155.769409,5.15608466 L155.769409,23.4453263 L158.814817,23.4453263 L158.814817,16.5868607 C158.814817,14.515873 159.723097,13.0365961 161.619799,13.0365961 C162.928791,13.0365961 163.596644,13.6014109 163.863785,14.515873 C164.050784,15.1613757 164.077498,15.9951499 164.077498,16.9634039 L164.077498,23.4453263 L167.122907,23.4453263 L167.122907,16.1834215 Z M173.400723,10.6428571 L170.355315,10.6428571 L170.355315,23.4453263 L173.400723,23.4453263 L173.400723,10.6428571 Z M173.400723,5.15608466 L170.355315,5.15608466 L170.355315,8.27601411 L173.400723,8.27601411 L173.400723,5.15608466 Z M186.250212,18.9268078 L188.360627,20.5405644 C187.799631,21.4281305 186.089927,23.7680776 182.376666,23.7680776 C178.609976,23.7680776 176.045421,21.0784832 176.045421,16.9365079 C176.045421,12.9828042 178.743546,10.3470018 182.296523,10.3470018 C186.357068,10.3470018 188.307199,13.1710758 188.307199,17.0978836 C188.307199,17.3130511 188.280485,17.6626984 188.280485,17.877866 L179.010687,17.877866 C179.2244,19.6261023 180.292965,21.1322751 182.53695,21.1322751 C184.834364,21.1322751 185.8495,19.5723104 186.250212,18.9268078 Z M182.296523,12.7945326 C180.560106,12.7945326 179.170972,14.058642 179.09083,15.5917108 L185.288504,15.5917108 C185.208362,13.9241623 184.006226,12.7945326 182.296523,12.7945326 Z M194.104161,5.15608466 L191.058752,5.15608466 L191.058752,23.4453263 L194.104161,23.4453263 L194.104161,5.15608466 Z M202.492393,23.7680776 C199.099701,23.7680776 196.855715,20.9440035 196.855715,17.0978836 C196.855715,13.117284 199.046272,10.3201058 202.492393,10.3201058 C204.148668,10.3201058 205.537802,11.1269841 206.232369,12.0414462 L206.232369,5.15608466 L209.277778,5.15608466 L209.277778,23.4453263 L206.232369,23.4453263 L206.232369,22.1005291 C205.430945,23.095679 204.202096,23.7680776 202.492393,23.7680776 Z M206.365939,17.0440917 C206.365939,14.5696649 205.056948,12.9559083 203.133532,12.9559083 C201.183401,12.9559083 199.901124,14.4620811 199.901124,17.0440917 C199.901124,19.5723104 201.183401,21.1053792 203.133532,21.1053792 C205.056948,21.1053792 206.365939,19.5185185 206.365939,17.0440917 Z" id="Hotspot-Shield-Copy" fill="#090A19"></path>
        </g>
    </g>
</svg>