<?xml version="1.0" encoding="UTF-8"?>
<svg width="32px" height="32px" viewBox="0 0 32 32" version="1.1" xmlns="http://www.w3.org/2000/svg" xmlns:xlink="http://www.w3.org/1999/xlink">
    <!-- Generator: Sketch 48.2 (47327) - http://www.bohemiancoding.com/sketch -->
    <title>Icons / Social / Linkedin@2x</title>
    <desc>Created with Sketch.</desc>
    <defs></defs>
    <g id="Install-Page" stroke="none" stroke-width="1" fill="none" fill-rule="evenodd" transform="translate(-30.000000, -447.000000)">
        <g id="Group-8" transform="translate(30.000000, 321.000000)">
            <g id="Icons-/-Social-/-Linkedin" transform="translate(0.000000, 126.000000)">
                <circle id="Oval" fill="#0075B8" cx="16" cy="16" r="16"></circle>
                <path d="M12.8928571,13.8071429 L12.8928571,20.8857143 L10.5357143,20.8857143 L10.5357143,13.8071429 L12.8928571,13.8071429 Z M13.0428571,11.6214286 C13.0476191,11.9690494 12.9273822,12.2595226 12.6821429,12.4928571 C12.4369035,12.7261916 12.1142877,12.8428571 11.7142857,12.8428571 L11.7,12.8428571 C11.3095219,12.8428571 10.9952393,12.7261916 10.7571429,12.4928571 C10.5190464,12.2595226 10.4,11.9690494 10.4,11.6214286 C10.4,11.2690459 10.5226178,10.9773821 10.7678571,10.7464286 C11.0130965,10.515475 11.3333314,10.4 11.7285714,10.4 C12.1238115,10.4 12.440475,10.515475 12.6785714,10.7464286 C12.9166679,10.9773821 13.0380952,11.2690459 13.0428571,11.6214286 Z M16.5428571,14.8130281 C16.6335655,14.6700635 16.7264218,14.5442934 16.8214286,14.4357143 C16.9214291,14.321428 17.0559515,14.1976197 17.225,14.0642857 C17.3940485,13.9309517 17.6011893,13.8273813 17.8464286,13.7535714 C18.0916679,13.6797615 18.3642842,13.6428571 18.6642857,13.6428571 C19.4785755,13.6428571 20.1333309,13.9130925 20.6285714,14.4535714 C21.123812,14.9940503 21.3714286,15.7857091 21.3714286,16.8285714 L21.3714286,20.8857143 L19.0214286,20.8857143 L19.0214286,17.1 C19.0214286,16.5999975 18.925001,16.2083348 18.7321429,15.925 C18.5392848,15.6416653 18.2380973,15.5 17.8285714,15.5 C17.5285699,15.5 17.277382,15.582142 17.075,15.7464286 C16.872618,15.9107151 16.7214291,16.1142845 16.6214286,16.3571429 C16.5690474,16.5000007 16.5428571,16.6928559 16.5428571,16.9357143 L16.5428571,20.8857143 L14.1928571,20.8857143 C14.202381,18.9857048 14.2071429,17.445244 14.2071429,16.2642857 C14.2071429,15.0833274 14.2047619,14.3785726 14.2,14.15 L14.1928571,13.8071429 L16.5428571,13.8071429 L16.5428571,14.8130281 Z" id="linkedin---FontAwesome" fill="#FFFFFF"></path>
            </g>
        </g>
    </g>
</svg>