<?xml version="1.0" encoding="UTF-8"?>
<svg width="32px" height="32px" viewBox="0 0 32 32" version="1.1" xmlns="http://www.w3.org/2000/svg" xmlns:xlink="http://www.w3.org/1999/xlink">
    <!-- Generator: Sketch 48.2 (47327) - http://www.bohemiancoding.com/sketch -->
    <title>Icons / Social / Twitter@2x</title>
    <desc>Created with Sketch.</desc>
    <defs></defs>
    <g id="Install-Page" stroke="none" stroke-width="1" fill="none" fill-rule="evenodd" transform="translate(-30.000000, -321.000000)">
        <g id="Group-8" transform="translate(30.000000, 321.000000)">
            <g id="Icons-/-Social-/-Twitter">
                <circle id="Oval" fill="#069FF5" cx="16" cy="16" r="16"></circle>
                <path d="M21.9519997,12.4037966 C21.6379642,12.8922962 21.2192565,13.32845 20.6958641,13.7122711 L20.6958641,14.026305 C20.6958641,15.8581785 20.0372718,17.5199246 18.7200675,19.011593 C17.4028633,20.5032614 15.6538864,21.2490845 13.4730846,21.2490845 C12.0773715,21.2490845 10.7863562,20.8652691 9.6,20.0976269 C9.87914263,20.1325197 10.0797734,20.1499659 10.2018983,20.1499659 C11.3708081,20.1499659 12.4175772,19.7835967 13.3422372,19.0508472 C12.8013983,19.0334008 12.3129061,18.8633008 11.8767457,18.5405422 C11.4405853,18.2177835 11.1440007,17.8034374 10.986983,17.2974914 C11.19634,17.3323842 11.3533554,17.3498303 11.4580338,17.3498303 C11.632498,17.3498303 11.859298,17.314938 12.1384406,17.2451524 C11.5627089,17.1230275 11.0785782,16.8308044 10.6860339,16.3684744 C10.2934895,15.9061445 10.0972203,15.3696753 10.0972203,14.7590508 L10.0972203,14.7328813 C10.4810414,14.9422382 10.8648568,15.0469151 11.2486779,15.0469151 C10.4984821,14.5584155 10.1233898,13.8518464 10.1233898,12.9271864 C10.1233898,12.491026 10.2367898,12.0723184 10.4635932,11.6710508 C11.8069671,13.3284602 13.5428593,14.2094909 15.6713219,14.3141694 C15.636429,14.1920445 15.6189829,14.0001368 15.6189829,13.7384406 C15.6189829,13.0231376 15.863229,12.4212453 16.3517286,11.9327457 C16.8402282,11.4442461 17.4421205,11.2 18.1574235,11.2 C18.8727265,11.2 19.4833418,11.4704154 19.9892879,12.0112542 C20.5126803,11.9240221 21.053511,11.7146683 21.6117963,11.3831864 C21.4373321,11.9938109 21.0622399,12.4648571 20.4865082,12.7963389 C21.027347,12.7439997 21.5158393,12.6131536 21.9519997,12.4037966 Z" id="ion-social-twitter---Ionicons" fill="#FFFFFF"></path>
            </g>
        </g>
    </g>
</svg>