<?xml version="1.0" encoding="UTF-8"?>
<svg width="32px" height="32px" viewBox="0 0 32 32" version="1.1" xmlns="http://www.w3.org/2000/svg" xmlns:xlink="http://www.w3.org/1999/xlink">
    <!-- Generator: Sketch 48.2 (47327) - http://www.bohemiancoding.com/sketch -->
    <title>Icons / Social / Youtube@2x</title>
    <desc>Created with Sketch.</desc>
    <defs></defs>
    <g id="Install-Page" stroke="none" stroke-width="1" fill="none" fill-rule="evenodd" transform="translate(-30.000000, -363.000000)">
        <g id="Group-8" transform="translate(30.000000, 321.000000)">
            <g id="Icons-/-Social-/-Youtube" transform="translate(0.000000, 42.000000)">
                <circle id="Oval" fill="#E92100" cx="16" cy="16" r="16"></circle>
                <path d="M22.325,13.325 C22.3750002,14.2250045 22.4,15.1166622 22.4,16 C22.4,16.8833378 22.3750002,17.7749955 22.325,18.675 C22.325,19.2416695 22.1458351,19.7208314 21.7875,20.1125 C21.4291649,20.5041686 20.9916692,20.7 20.475,20.7 C19.1916602,20.766667 17.7000085,20.8 16,20.8 C14.2999915,20.8 12.8083398,20.766667 11.525,20.7 C11.0083308,20.7 10.5708351,20.5041686 10.2125,20.1125 C9.85416488,19.7208314 9.675,19.2416695 9.675,18.675 C9.62499975,17.7749955 9.6,16.8833378 9.6,16 C9.6,15.4166637 9.633333,14.525006 9.7,13.325 C9.7,12.7583305 9.87499825,12.2791686 10.225,11.8875 C10.5750018,11.4958314 11.0083308,11.3 11.525,11.3 C12.7416728,11.233333 14.1583253,11.2 15.775,11.2 L16.225,11.2 C17.8416747,11.2 19.2583272,11.233333 20.475,11.3 C20.9916692,11.3 21.4291649,11.4958314 21.7875,11.8875 C22.1458351,12.2791686 22.325,12.7583305 22.325,13.325 Z M14.775,18.45 L18.4,16 L14.775,13.525 L14.775,18.45 Z" id="ion-social-youtube---Ionicons" fill="#FFFFFF"></path>
            </g>
        </g>
    </g>
</svg>