<?xml version="1.0" encoding="UTF-8"?>
<svg width="40px" height="46px" viewBox="0 0 40 46" version="1.1" xmlns="http://www.w3.org/2000/svg" xmlns:xlink="http://www.w3.org/1999/xlink">
    <!-- Generator: Sketch 48.2 (47327) - http://www.bohemiancoding.com/sketch -->
    <title>logo</title>
    <desc>Created with Sketch.</desc>
    <defs></defs>
    <g id="Chrome-Extension" stroke="none" stroke-width="1" fill="none" fill-rule="evenodd">
        <g id="HSS-Icon" transform="translate(-16.000000, -13.000000)">
            <g id="logo" transform="translate(16.000000, 13.000000)">
                <g id="Shield" fill="#2FA6F8">
                    <path d="M19.5987909,45.6286815 C19.4032992,45.5563119 0,39.3027837 0,17.0545781 L0,0.796693498 C0,0.40510446 0.31755003,0.0868764059 0.709029677,0.0868764059 L38.9847241,0.0868764059 C39.3762038,0.0868764059 39.6937538,0.40510446 39.6937538,0.796693498 L39.6937538,17.0545781 C39.6937538,39.3027837 20.2904546,45.5548249 20.0949629,45.6286815 C20.0155753,45.6584225 19.9317223,45.6742843 19.8468769,45.6742843 C19.7620315,45.6742843 19.6781784,45.6584225 19.5987909,45.6286815" id="Fill-1"></path>
                </g>
                <g id="Petals" transform="translate(7.000000, 8.000000)">
                    <path d="M21.4798206,21.1286884 C20.6160235,21.7144948 19.6669502,22.1771316 18.6591868,22.5040817 C15.8390547,23.4188409 12.8308134,23.1825156 10.1882563,21.8386657 C7.65204349,20.5488903 5.72931731,18.3673874 4.77522778,15.6962104 C4.73058321,15.5705374 4.59965925,15.4984381 4.46973854,15.5269774 C4.33981783,15.5555167 4.25103032,15.6751814 4.2630693,15.8073634 C4.42258585,17.6088432 5.0721894,19.3377231 6.14265579,20.8082473 C9.39769626,25.2804034 15.6915771,26.2752729 20.1720859,23.0263005 C20.7790514,22.5861947 21.3358544,22.0794972 21.8269447,21.5207281 C21.9147289,21.4210909 21.9147289,21.2718855 21.8264431,21.1722484 C21.7381572,21.0726112 21.590178,21.0540857 21.4798206,21.1286884" id="Fill-4" fill="#0E5396"></path>
                    <path d="M13.6312554,1.42766915 C19.2875717,3.26219445 22.5280651,9.38712567 20.8546462,15.0809635 C20.8170244,15.2081385 20.880229,15.3438253 21.0021237,15.3968984 C21.0904096,15.4354514 21.1897313,15.4224335 21.26347,15.3683591 C21.291561,15.3483315 21.3161406,15.3222957 21.3347007,15.2907522 C22.2662171,13.7401177 22.7588123,11.9596669 22.7583106,10.1426657 C22.7588123,7.46948596 21.7124238,4.95252125 19.8137756,3.05691187 C17.9146258,1.16130249 15.3934618,0.117365467 12.7142861,0.117365467 C11.9623511,0.117866156 11.213426,0.200980566 10.4885788,0.364705941 C10.3596613,0.394246605 10.2713754,0.514912706 10.283916,0.64709466 C10.2964566,0.779276614 10.4058107,0.881417215 10.5387412,0.885923418 C11.5836247,0.918968906 12.6239937,1.10071909 13.6312554,1.42766915" id="Fill-8" fill="#00FFCA"></path>
                    <path d="M0.707605996,11.1710814 C1.06175279,10.1902312 1.55735766,9.25844854 2.1798735,8.40226997 C2.87311836,7.45045977 3.70130018,6.62181911 4.64184586,5.9393797 C6.06043955,4.91096405 7.66914888,4.2490529 9.42433252,3.97117038 C12.2364387,3.52655836 15.0766358,4.16393573 17.4217297,5.76513986 C17.5155335,5.82922808 17.6374282,5.82522256 17.7262157,5.76113434 C17.7412644,5.75011918 17.7553099,5.73710126 17.7683521,5.72258127 C17.856638,5.62344481 17.8576413,5.47423942 17.7703586,5.37410158 C16.5805057,4.01022414 15.0360042,2.99282365 13.304397,2.43155104 C8.03834441,0.723199421 2.35995664,3.61017346 0.648414321,8.86791095 C0.416663866,9.57939033 0.264170061,10.3164049 0.195949148,11.0574249 C0.183408538,11.1896069 0.271694426,11.310273 0.401615136,11.3393129 C0.532037469,11.3678522 0.662961428,11.2952523 0.707605996,11.1710814" id="Fill-10" fill="#F65260"></path>
                    <path d="M5.2871856,21.4285011 C1.79136543,16.6258901 2.7770573,9.76945195 7.48379868,6.1449627 C7.58913979,6.06385104 7.61773238,5.9171491 7.55051472,5.80249127 C7.48329705,5.68783344 7.34083573,5.64126934 7.21894101,5.69334102 C5.55555463,6.39981351 4.10285048,7.55590492 3.03539384,9.02292433 C-0.219646636,13.4950804 0.77708097,19.7772281 5.25758976,23.0262004 C5.86555849,23.4668069 6.52017828,23.838819 7.20339066,24.1322229 C7.29167655,24.1697746 7.3894933,24.156256 7.46323208,24.1031829 C7.49182467,24.082154 7.51640426,24.0556174 7.53546599,24.0235733 C7.60318528,23.9089155 7.57459269,23.7622136 7.4697532,23.6811019 C6.6440795,23.0417218 5.90970143,22.2836783 5.2871856,21.4285011" id="Fill-12" fill="#FBCC62"></path>
                </g>
            </g>
        </g>
    </g>
</svg>